<svg width="1066" height="153" viewBox="0 0 1066 153" fill="none" xmlns="http://www.w3.org/2000/svg">
<path d="M421.477 138.258C410.734 148.089 396.997 153.004 380.266 153.004C359.562 153.004 343.286 146.363 331.438 133.082C319.589 119.736 313.664 101.441 313.664 78.1992C313.664 53.069 320.402 33.7005 333.879 20.0938C345.598 8.24479 360.507 2.32031 378.605 2.32031C402.824 2.32031 420.533 10.263 431.73 26.1484C437.915 35.0677 441.236 44.0195 441.691 53.0039H411.613C409.66 46.1029 407.154 40.8945 404.094 37.3789C398.625 31.1289 390.52 28.0039 379.777 28.0039C368.84 28.0039 360.214 32.431 353.898 41.2852C347.583 50.0742 344.426 62.5417 344.426 78.6875C344.426 94.8333 347.746 106.943 354.387 115.016C361.092 123.023 369.589 127.027 379.875 127.027C390.422 127.027 398.462 123.577 403.996 116.676C407.056 112.965 409.595 107.398 411.613 99.9766H441.398C438.794 115.667 432.154 128.427 421.477 138.258Z" fill="white"/>
<path d="M546.723 119.41H493.695L483.734 149H452.289L503.656 5.05469H537.641L588.617 149H556L546.723 119.41ZM538.324 94.6055L520.355 37.9648L501.801 94.6055H538.324Z" fill="white"/>
<path d="M657.223 128.199C664.319 128.199 670.081 127.418 674.508 125.855C682.906 122.861 687.105 117.294 687.105 109.156C687.105 104.404 685.022 100.725 680.855 98.1211C676.689 95.582 670.146 93.3359 661.227 91.3828L645.992 87.9648C631.018 84.5794 620.667 80.901 614.938 76.9297C605.237 70.2891 600.387 59.9049 600.387 45.7773C600.387 32.8867 605.074 22.1771 614.449 13.6484C623.824 5.11979 637.594 0.855469 655.758 0.855469C670.927 0.855469 683.85 4.89193 694.527 12.9648C705.27 20.9727 710.901 32.6263 711.422 47.9258H682.516C681.995 39.2669 678.219 33.1146 671.188 29.4688C666.5 27.0599 660.673 25.8555 653.707 25.8555C645.96 25.8555 639.775 27.418 635.152 30.543C630.53 33.668 628.219 38.0299 628.219 43.6289C628.219 48.7721 630.497 52.6133 635.055 55.1523C637.984 56.8451 644.234 58.8307 653.805 61.1094L678.609 67.0664C689.482 69.6706 697.685 73.1536 703.219 77.5156C711.812 84.2865 716.109 94.0846 716.109 106.91C716.109 120.061 711.064 130.999 700.973 139.723C690.947 148.382 676.754 152.711 658.395 152.711C639.645 152.711 624.898 148.447 614.156 139.918C603.414 131.324 598.043 119.54 598.043 104.566H626.754C627.665 111.142 629.456 116.057 632.125 119.312C637.008 125.237 645.374 128.199 657.223 128.199Z" fill="white"/>
<path d="M734.031 5.05469H763.914V149H734.031V5.05469Z" fill="white"/>
<path d="M906.445 149H876.367L817.578 46.7539V149H789.551V5.05469H821.094L878.418 105.543V5.05469H906.445V149Z" fill="white"/>
<path d="M996.242 153.004C975.669 153.004 959.947 147.405 949.074 136.207C934.491 122.47 927.199 102.678 927.199 76.832C927.199 50.4648 934.491 30.6732 949.074 17.457C959.947 6.25911 975.669 0.660156 996.242 0.660156C1016.82 0.660156 1032.54 6.25911 1043.41 17.457C1057.93 30.6732 1065.19 50.4648 1065.19 76.832C1065.19 102.678 1057.93 122.47 1043.41 136.207C1032.54 147.405 1016.82 153.004 996.242 153.004ZM1024.66 114.332C1031.63 105.543 1035.11 93.043 1035.11 76.832C1035.11 60.6862 1031.59 48.2188 1024.56 39.4297C1017.6 30.5755 1008.16 26.1484 996.242 26.1484C984.328 26.1484 974.823 30.543 967.727 39.332C960.63 48.1211 957.082 60.6211 957.082 76.832C957.082 93.043 960.63 105.543 967.727 114.332C974.823 123.121 984.328 127.516 996.242 127.516C1008.16 127.516 1017.63 123.121 1024.66 114.332Z" fill="white"/>
<path d="M0.890625 5.05469H30.7734V149H0.890625V5.05469Z" fill="#36F162"/>
<path d="M46.2539 5.05469H78.3828L109.633 114.332L141.176 5.05469H172.426L123.305 149H94.8867L46.2539 5.05469Z" fill="#36F162"/>
<path d="M304.508 5.05469L256.363 94.8984V149H226.285V94.8984L176.48 5.05469H211.93L241.812 67.75L270.426 5.05469H304.508Z" fill="#36F162"/>
</svg>
