<svg width="64" height="32" viewBox="0 0 64 32" fill="none" xmlns="http://www.w3.org/2000/svg">
<path d="M36.3453 9.74294V0.426667C36.3453 0.192 36.1533 0 35.9186 0H23.6242C23.4898 0 23.3618 0.064 23.2829 0.1728L0.0849915 31.3195C-0.124075 31.6011 0.0764582 32 0.426325 32H17.813C17.9495 32 18.0775 31.9339 18.1586 31.8229L25.5485 21.6277C25.7917 21.2928 26.3207 21.4656 26.3207 21.8773V31.5669C26.3207 31.8016 26.5106 31.9936 26.7453 31.9936H37.3607C37.4994 31.9936 37.6274 31.9275 37.7085 31.8144L44.9597 21.6469C45.2007 21.3099 45.7341 21.4784 45.7341 21.8944V31.5648C45.7341 31.7995 45.9239 31.9915 46.1586 31.9915H63.4685C63.7031 31.9915 63.8951 31.7995 63.8951 31.5648V0.426667C63.8951 0.192 63.7031 0 63.4685 0H46.5895C46.4701 0 46.357 0.0490667 46.2759 0.136533L37.0834 10.0331C36.8189 10.3168 36.3431 10.1312 36.3431 9.74294H36.3453Z" fill="#46FF33" />
</svg>
